<svg xmlns="http://www.w3.org/2000/svg" viewBox="0 0 900 880" font-family="'Segoe UI', system-ui, -apple-system, Roboto, Helvetica, Arial, sans-serif"><defs><marker id="a" markerWidth="10" markerHeight="10" refX="8" refY="3" orient="auto" markerUnits="strokeWidth"><path d="M0,0 L8,3 L0,6 Z" fill="#64748b"/></marker><marker id="ar" markerWidth="10" markerHeight="10" refX="8" refY="3" orient="auto" markerUnits="strokeWidth"><path d="M0,0 L8,3 L0,6 Z" fill="#ef4444"/></marker><marker id="ag" markerWidth="10" markerHeight="10" refX="8" refY="3" orient="auto" markerUnits="strokeWidth"><path d="M0,0 L8,3 L0,6 Z" fill="#10b981"/></marker></defs><rect x="0" y="0" width="900" height="880" fill="#ffffff"/><text x="450.0" y="38" text-anchor="middle" font-size="22" font-weight="700" fill="#1e293b">Memory Write Path</text><text x="450.0" y="60" text-anchor="middle" font-size="13" fill="#64748b">runs asynchronously after the reply streams — never blocks the user</text><rect x="165.0" y="92" width="330" height="54" rx="9" fill="#f8fafc" stroke="#cbd5e1" stroke-width="1.5"/><circle cx="183.0" cy="110" r="11" fill="#cbd5e1"/><text x="183.0" y="114" text-anchor="middle" font-size="12" font-weight="700" fill="#ffffff">1</text><text x="330" y="115.0" text-anchor="middle" font-size="13.5" font-weight="700" fill="#1e293b">User turn captured</text><text x="330" y="133.0" text-anchor="middle" font-size="11" font-weight="400" fill="#64748b">the message just answered</text><rect x="165.0" y="186" width="330" height="54" rx="9" fill="#eef2ff" stroke="#6366f1" stroke-width="1.5"/><circle cx="183.0" cy="204" r="11" fill="#6366f1"/><text x="183.0" y="208" text-anchor="middle" font-size="12" font-weight="700" fill="#ffffff">2</text><text x="330" y="209.0" text-anchor="middle" font-size="13.5" font-weight="700" fill="#3730a3">Extract candidate memories</text><text x="330" y="227.0" text-anchor="middle" font-size="11" font-weight="400" fill="#64748b">qwen-plus → structured JSON (max 4/turn)</text><line x1="330" y1="146" x2="330" y2="186" stroke="#64748b" stroke-width="2" marker-end="url(#a)"/><rect x="165.0" y="280" width="330" height="54" rx="9" fill="#f0f9ff" stroke="#0ea5e9" stroke-width="1.5"/><circle cx="183.0" cy="298" r="11" fill="#0ea5e9"/><text x="183.0" y="302" text-anchor="middle" font-size="12" font-weight="700" fill="#ffffff">3</text><text x="330" y="303.0" text-anchor="middle" font-size="13.5" font-weight="700" fill="#0369a1">Embed each candidate</text><text x="330" y="321.0" text-anchor="middle" font-size="11" font-weight="400" fill="#64748b">text-embedding-v4 · 1024-d</text><line x1="330" y1="240" x2="330" y2="280" stroke="#64748b" stroke-width="2" marker-end="url(#a)"/><rect x="165.0" y="374" width="330" height="54" rx="9" fill="#f0fdfa" stroke="#0d9488" stroke-width="1.5"/><circle cx="183.0" cy="392" r="11" fill="#0d9488"/><text x="183.0" y="396" text-anchor="middle" font-size="12" font-weight="700" fill="#ffffff">4</text><text x="330" y="397.0" text-anchor="middle" font-size="13.5" font-weight="700" fill="#0f766e">Dedup / supersession check</text><text x="330" y="415.0" text-anchor="middle" font-size="11" font-weight="400" fill="#64748b">search OWN namespace · cosine &gt; 0.92</text><line x1="330" y1="334" x2="330" y2="374" stroke="#64748b" stroke-width="2" marker-end="url(#a)"/><polygon points="330,450.0 430.0,498 330,546.0 230.0,498" fill="#fffbeb" stroke="#f59e0b" stroke-width="1.5"/><text x="330" y="502" text-anchor="middle" font-size="12" font-weight="700" fill="#b45309">near-duplicate?</text><line x1="330" y1="428" x2="330" y2="450.0" stroke="#64748b" stroke-width="2" marker-end="url(#a)"/><polygon points="700,450.0 800.0,498 700,546.0 600.0,498" fill="#fffbeb" stroke="#f59e0b" stroke-width="1.5"/><text x="700" y="502" text-anchor="middle" font-size="12" font-weight="700" fill="#b45309">updates old?</text><line x1="430.0" y1="498" x2="600.0" y2="498" stroke="#64748b" stroke-width="2" marker-end="url(#a)"/><text x="620" y="490" text-anchor="middle" font-size="11" font-weight="400" fill="#64748b">yes</text><rect x="560.0" y="582.0" width="280" height="54" rx="9" fill="#fffbeb" stroke="#f59e0b" stroke-width="1.5"/><text x="700" y="605.0" text-anchor="middle" font-size="13.5" font-weight="700" fill="#b45309">Mark old superseded</text><text x="700" y="623.0" text-anchor="middle" font-size="11" font-weight="400" fill="#64748b">status=superseded · superseded_by</text><line x1="700" y1="546.0" x2="700" y2="582.0" stroke="#64748b" stroke-width="2" marker-end="url(#a)"/><text x="700.0" y="560.0" text-anchor="middle" font-size="11" font-weight="400" fill="#64748b">yes</text><rect x="580.0" y="360.0" width="240" height="50" rx="9" fill="#f8fafc" stroke="#cbd5e1" stroke-width="1.5"/><text x="700" y="390.0" text-anchor="middle" font-size="13.5" font-weight="700" fill="#1e293b">Skip — true duplicate</text><line x1="700" y1="450.0" x2="700" y2="410.0" stroke="#64748b" stroke-width="2" marker-end="url(#a)"/><text x="700.0" y="426.0" text-anchor="middle" font-size="11" font-weight="400" fill="#64748b">no</text><rect x="150.0" y="616.0" width="360" height="56" rx="9" fill="#eef2ff" stroke="#6366f1" stroke-width="1.5"/><circle cx="168.0" cy="634.0" r="11" fill="#6366f1"/><text x="168.0" y="638.0" text-anchor="middle" font-size="12" font-weight="700" fill="#ffffff">5</text><text x="330" y="640.0" text-anchor="middle" font-size="13.5" font-weight="700" fill="#3730a3">Persist memory</text><text x="330" y="658.0" text-anchor="middle" font-size="11" font-weight="400" fill="#64748b">Postgres row (active) + Qdrant point + payload</text><line x1="330" y1="546.0" x2="330" y2="616.0" stroke="#64748b" stroke-width="2" marker-end="url(#a)"/><text x="330.0" y="577.0" text-anchor="middle" font-size="11" font-weight="400" fill="#64748b">no / new</text><line x1="700" y1="636.0" x2="510.0" y2="644.0" stroke="#64748b" stroke-width="2" marker-end="url(#a)"/><rect x="180.0" y="712.0" width="300" height="50" rx="9" fill="#ecfdf5" stroke="#10b981" stroke-width="1.5"/><circle cx="198.0" cy="730.0" r="11" fill="#10b981"/><text x="198.0" y="734.0" text-anchor="middle" font-size="12" font-weight="700" fill="#ffffff">6</text><text x="330" y="742.0" text-anchor="middle" font-size="13.5" font-weight="700" fill="#065f46">Audit: memory_write</text><line x1="330" y1="672.0" x2="330" y2="712.0" stroke="#64748b" stroke-width="2" marker-end="url(#a)"/></svg>